<svg xmlns="http://www.w3.org/2000/svg" viewBox="0 0 80 80">
    <path d="M 40 13 C 31.930187 13 25.21248 18.656534 23.482422 26.212891 C 18.594954 26.846429 14.693788 30.364425 13.488281 35.052734 C 6.0095084 35.328921 1.1842379e-15 41.454863 0 49 C 0 56.72039 6.27961 63 14 63 L 21 63 A 1.0001 1.0001 0 1 0 21 61 L 14 61 C 7.36039 61 2 55.63961 2 49 C 2 42.36039 7.36039 37 14 37 C 13.97025 37 14.0317 37.009766 14.189453 37.009766 L 15.023438 37.009766 L 15.025391 36.998047 A 1 1 0 0 0 16 36 A 1 1 0 0 0 15.443359 35.105469 C 16.624127 31.198793 20.117796 28.306089 24.349609 28.033203 L 24.921875 27.998047 A 1 1 0 0 0 25 28 A 1 1 0 0 0 26 27 A 1 1 0 0 0 25.517578 26.144531 C 27.219484 19.73162 33.040588 15 40 15 C 46.433135 15 51.888211 19.047962 54.025391 24.724609 L 54.033203 24.746094 A 1 1 0 0 0 54 25 A 1 1 0 0 0 55 26 A 1 1 0 0 0 55.978516 25.199219 C 56.640533 25.082285 57.3113 25 58 25 C 64.63961 25 70 30.36039 70 37 C 70 38.051177 69.851543 39.070721 69.591797 40.056641 L 69.330078 41.046875 L 70.326172 41.283203 C 74.723841 42.332864 78 46.269546 78 51 C 78 56.534534 73.534534 61 68 61 L 61 61 A 1.0001 1.0001 0 1 0 61 63 L 68 63 C 74.615466 63 80 57.615466 80 51 C 80 45.672143 76.459385 41.258886 71.640625 39.699219 C 71.819165 38.820605 72 37.939119 72 37 C 72 29.27961 65.72039 23 58 23 C 57.131846 23 56.313684 23.153389 55.498047 23.306641 C 52.885208 17.277004 46.980544 13 40 13 z M 29 26 A 1 1 0 0 0 28 27 A 1 1 0 0 0 29 28 A 1 1 0 0 0 30 27 A 1 1 0 0 0 29 26 z M 33 28 A 1 1 0 0 0 32 29 A 1 1 0 0 0 33 30 A 1 1 0 0 0 34 29 A 1 1 0 0 0 33 28 z M 56 28 A 1 1 0 0 0 55 29 A 1 1 0 0 0 56 30 A 1 1 0 0 0 57 29 A 1 1 0 0 0 56 28 z M 36 31 A 1 1 0 0 0 35 32 A 1 1 0 0 0 36 33 A 1 1 0 0 0 37 32 A 1 1 0 0 0 36 31 z M 56 32 A 1 1 0 0 0 55 33 A 1 1 0 0 0 56 34 A 1 1 0 0 0 57 33 A 1 1 0 0 0 56 32 z M 19 35 A 1 1 0 0 0 18 36 A 1 1 0 0 0 19 37 A 1 1 0 0 0 20 36 A 1 1 0 0 0 19 35 z M 23 37 A 1 1 0 0 0 22 38 A 1 1 0 0 0 23 39 A 1 1 0 0 0 24 38 A 1 1 0 0 0 23 37 z M 38.576172 37.580078 L 38.980469 49.835938 L 43.023438 49.835938 L 43.427734 37.580078 L 38.576172 37.580078 z M 69 43 A 1 1 0 0 0 68 44 A 1 1 0 0 0 69 45 A 1 1 0 0 0 70 44 A 1 1 0 0 0 69 43 z M 67 46 A 1 1 0 0 0 66 47 A 1 1 0 0 0 67 48 A 1 1 0 0 0 68 47 A 1 1 0 0 0 67 46 z M 41.001953 52.642578 C 39.371953 52.642578 38.423828 53.490078 38.423828 54.955078 C 38.423828 56.408078 39.371953 57.255859 41.001953 57.255859 C 42.631953 57.255859 43.591797 56.408078 43.591797 54.955078 C 43.591797 53.490078 42.631953 52.642578 41.001953 52.642578 z M 25 61 A 1 1 0 0 0 24 62 A 1 1 0 0 0 25 63 A 1 1 0 0 0 26 62 A 1 1 0 0 0 25 61 z M 29 61 A 1 1 0 0 0 28 62 A 1 1 0 0 0 29 63 A 1 1 0 0 0 30 62 A 1 1 0 0 0 29 61 z M 33 61 A 1 1 0 0 0 32 62 A 1 1 0 0 0 33 63 A 1 1 0 0 0 34 62 A 1 1 0 0 0 33 61 z M 37 61 A 1 1 0 0 0 36 62 A 1 1 0 0 0 37 63 A 1 1 0 0 0 38 62 A 1 1 0 0 0 37 61 z M 41 61 A 1 1 0 0 0 40 62 A 1 1 0 0 0 41 63 A 1 1 0 0 0 42 62 A 1 1 0 0 0 41 61 z M 45 61 A 1 1 0 0 0 44 62 A 1 1 0 0 0 45 63 A 1 1 0 0 0 46 62 A 1 1 0 0 0 45 61 z M 49 61 A 1 1 0 0 0 48 62 A 1 1 0 0 0 49 63 A 1 1 0 0 0 50 62 A 1 1 0 0 0 49 61 z M 53 61 A 1 1 0 0 0 52 62 A 1 1 0 0 0 53 63 A 1 1 0 0 0 54 62 A 1 1 0 0 0 53 61 z M 57 61 A 1 1 0 0 0 56 62 A 1 1 0 0 0 57 63 A 1 1 0 0 0 58 62 A 1 1 0 0 0 57 61 z"></path>
</svg>